{"glyphs":{"0":{"ha":848,"x_min":0,"x_max":773,"o":"m 235 1042 l 437 1042 q 773 437 773 1042 q 370 0 706 0 l 302 0 q 0 370 0 0 l 0 706 q 235 1042 0 1042 m 235 975 l 201 840 q 404 67 245 67 l 471 67 l 504 235 l 504 605 q 404 975 504 975 l 235 975 z "},"1":{"ha":432,"x_min":0,"x_max":359,"o":"m 359 1046 l 359 1014 l 294 0 l 0 0 l 65 621 l 65 785 l 0 883 l 0 981 l 359 1046 z "},"2":{"ha":1036,"x_min":0,"x_max":970,"o":"m 359 1042 l 431 1042 q 790 754 790 1042 l 323 323 l 359 288 l 503 288 q 970 359 808 288 l 970 323 q 862 72 922 72 l 72 0 l 72 288 l 539 754 l 503 790 l 431 790 l 0 754 q 359 1042 0 1042 z "},"3":{"ha":828,"x_min":0,"x_max":764,"o":"m 139 1042 l 660 1042 l 729 972 l 729 764 q 416 660 416 736 q 764 278 764 523 q 313 0 764 0 q 35 278 35 44 l 69 278 l 313 243 q 486 347 486 288 q 174 590 486 590 q 590 833 323 762 l 521 903 l 0 764 l 0 799 q 139 1042 83 1042 z "},"4":{"ha":904,"x_min":0,"x_max":843,"o":"m 337 1045 l 202 438 l 202 371 l 337 371 q 472 978 438 371 l 506 944 l 742 944 l 742 910 l 674 371 l 843 371 l 843 337 q 607 202 843 282 l 607 0 l 270 0 l 270 34 l 303 270 l 270 270 l 135 236 l 101 236 q 0 438 0 270 l 0 944 q 337 1045 0 1019 z "},"5":{"ha":894,"x_min":0,"x_max":829,"o":"m 35 1036 l 622 1002 l 622 863 l 587 691 l 208 829 l 138 829 l 138 656 q 484 587 138 587 q 829 414 829 475 l 829 311 q 104 0 829 0 l 0 208 l 242 173 l 311 173 l 484 208 l 484 311 q 276 414 449 414 l 35 414 l 35 1036 z "},"6":{"ha":899,"x_min":0,"x_max":829,"o":"m 484 1036 q 311 691 311 838 l 311 656 l 345 691 l 622 691 q 829 587 829 669 l 829 414 q 656 0 829 144 l 311 0 q 0 380 0 46 l 0 587 q 484 1036 0 1036 m 173 484 l 173 208 q 449 104 195 104 l 553 518 l 380 553 l 242 553 l 173 484 z "},"7":{"ha":798,"x_min":0,"x_max":726,"o":"m 726 967 l 380 0 l 138 0 l 104 35 l 69 35 l 553 863 l 484 863 l 0 691 l 0 1036 l 553 1036 q 726 967 726 1027 z "},"8":{"ha":965,"x_min":0,"x_max":898,"o":"m 380 1036 q 829 760 715 1036 l 691 553 q 898 414 898 472 q 518 0 803 0 l 414 0 q 35 311 35 0 q 208 449 106 449 l 208 518 l 0 587 l 0 691 q 380 1036 0 967 m 345 863 l 345 829 l 380 587 l 587 587 l 656 656 l 656 760 l 622 932 l 414 932 l 345 863 m 208 380 l 208 208 l 276 138 l 518 138 l 553 380 l 553 414 l 380 449 l 276 449 l 208 380 z "},"9":{"ha":869,"x_min":0,"x_max":802,"o":"m 435 1036 q 802 635 802 1036 l 802 435 q 401 0 802 0 l 334 100 l 334 134 l 535 334 l 535 368 l 334 301 l 234 301 l 0 368 l 0 468 q 334 1036 0 1036 l 435 1036 m 267 769 l 267 401 l 301 401 q 635 702 412 424 q 468 936 548 917 l 435 936 l 267 769 z "}," ":{"ha":386,"x_min":0,"x_max":0,"o":""},"!":{"ha":335,"x_min":0,"x_max":260,"o":"m 260 1042 l 260 1009 l 163 326 l 33 293 l 33 618 l 0 1009 l 260 1042 m 195 163 l 228 33 l 195 0 l 0 0 l 0 163 l 195 163 z "},"\"":{"ha":493,"x_min":60,"x_max":406,"o":"m 60 806 l 60 1043 l 217 1043 l 217 759 l 123 711 l 60 806 m 249 1043 l 406 1043 l 406 759 l 374 711 l 249 759 l 249 1043 z "},"#":{"ha":894,"x_min":0,"x_max":833,"o":"m 83 1000 l 333 1000 l 333 791 l 500 791 l 458 1000 l 500 1041 l 583 1041 q 666 791 666 1041 l 708 833 l 791 833 l 791 583 l 666 583 l 666 458 q 833 375 833 458 l 833 333 q 708 250 833 250 l 708 0 l 500 0 l 500 250 l 333 250 l 333 0 l 250 0 l 208 41 l 167 41 l 125 0 l 83 41 l 83 83 l 125 208 l 0 208 l 0 416 l 125 416 l 125 583 l 0 583 l 0 666 l 41 708 l 41 749 l 0 791 l 125 874 l 83 1000 m 333 583 l 333 416 l 500 416 l 500 583 l 333 583 z "},"$":{"ha":635,"x_min":0,"x_max":568,"o":"m 189 1042 l 315 1042 q 536 916 315 916 l 536 694 l 315 758 l 315 600 q 568 315 568 451 q 347 95 568 243 l 347 0 l 189 0 l 189 126 l 0 126 l 0 189 l 32 347 l 126 347 l 158 315 l 189 315 l 221 347 l 221 473 q 0 789 0 640 l 0 821 q 221 947 0 923 l 221 979 l 189 1010 l 189 1042 m 158 758 l 158 631 l 221 631 l 221 758 l 158 758 m 284 473 l 284 379 l 347 315 l 379 315 l 410 410 l 315 473 l 284 473 z "},"%":{"ha":1189,"x_min":0,"x_max":1122,"o":"m 801 1042 l 961 1002 q 441 0 712 648 l 240 40 l 240 80 q 761 1042 572 572 l 801 1042 m 240 961 l 280 961 l 401 841 l 401 681 l 280 561 l 80 561 l 0 721 q 240 961 0 961 m 160 801 l 160 681 l 280 681 l 280 801 l 160 801 m 921 401 q 1122 240 1104 323 l 1122 120 l 1002 0 l 881 0 l 721 160 q 921 361 747 361 l 921 401 m 841 280 l 841 200 l 921 120 l 961 120 l 1002 240 l 961 280 l 841 280 z "},"&":{"ha":1103,"x_min":0,"x_max":1036,"o":"m 468 1036 q 802 735 802 980 l 568 535 l 735 401 l 769 401 q 903 568 769 499 l 1036 368 q 836 267 836 334 l 969 134 l 836 0 l 669 134 q 334 0 669 41 q 0 301 0 75 q 167 468 56 468 l 167 535 l 33 702 l 33 769 q 468 1003 33 1003 l 468 1036 m 267 869 l 267 669 l 401 635 q 635 735 635 669 l 635 869 l 267 869 m 201 435 l 167 134 l 201 100 l 401 100 l 468 167 l 468 401 l 301 435 l 201 435 z "},"'":{"ha":265,"x_min":60,"x_max":217,"o":"m 60 806 l 60 1043 l 217 1043 l 217 759 l 123 711 l 60 806 z "},"(":{"ha":463,"x_min":0,"x_max":401,"o":"m 234 1046 l 301 1004 q 201 836 201 969 q 401 0 99 165 l 301 0 q 0 368 0 0 l 0 702 q 234 1046 0 1036 z "},")":{"ha":463,"x_min":0,"x_max":401,"o":"m 167 1046 q 401 702 401 1036 l 401 368 q 100 0 401 0 l 0 0 q 201 836 302 165 q 100 1004 201 969 l 167 1046 z "},"*":{"ha":541,"x_min":71,"x_max":488,"o":"m 203 1021 l 300 1021 l 315 920 l 406 970 l 488 920 l 335 853 l 457 752 l 340 711 l 275 833 l 198 711 l 127 752 l 208 859 l 71 924 l 92 975 l 203 930 l 203 1021 z "},"+":{"ha":808,"x_min":0,"x_max":747,"o":"m 291 894 l 457 894 l 457 645 l 747 645 l 747 479 l 457 479 l 457 188 l 291 188 l 291 479 l 0 479 l 0 645 l 291 645 l 291 894 z "},",":{"ha":304,"x_min":0,"x_max":238,"o":"m 204 170 l 238 33 l 238 -68 l 170 -137 l 136 -137 q 0 -1 136 -1 l 0 170 l 204 203 l 204 170 z "},"-":{"ha":559,"x_min":41,"x_max":519,"o":"m 42 590 q 86 587 60 587 l 464 587 q 518 592 485 587 l 519 444 q 473 457 493 454 l 81 457 q 41 454 56 454 l 42 590 z "},".":{"ha":320,"x_min":0,"x_max":250,"o":"m 156 187 l 187 218 l 218 218 l 250 0 l 0 0 l 0 187 l 156 187 z "},"/":{"ha":772,"x_min":0,"x_max":702,"o":"m 468 1036 l 702 1003 l 702 969 q 234 0 392 507 l 201 0 l 0 67 q 468 1036 468 917 z "},":":{"ha":290,"x_min":0,"x_max":218,"o":"m 73 836 l 73 800 l 109 836 l 182 836 l 218 618 l 0 618 l 0 764 l 73 836 m 37 254 q 218 37 218 232 l 218 0 l 109 0 l 37 73 l 37 254 z "},";":{"ha":290,"x_min":0,"x_max":238,"o":"m 73 836 l 73 800 l 109 836 l 182 836 l 218 618 l 0 618 l 0 764 l 73 836 m 204 170 l 238 33 l 238 -68 l 170 -137 l 136 -137 q 0 -1 136 -1 l 0 170 l 204 203 l 204 170 z "},"<":{"ha":811,"x_min":35,"x_max":783,"o":"m 777 757 q 274 534 447 671 q 783 224 406 406 l 635 76 l 35 544 l 645 914 l 777 757 z "},"=":{"ha":757,"x_min":0,"x_max":691,"o":"m 35 803 l 208 768 l 484 768 l 656 803 l 656 596 l 0 596 l 0 665 l 35 699 l 35 734 l 0 768 l 35 803 m 656 492 l 691 458 l 691 389 l 622 319 l 518 319 l 0 285 l 0 458 l 414 458 l 656 492 z "},">":{"ha":811,"x_min":35,"x_max":783,"o":"m 41 757 l 173 914 l 783 544 l 183 76 l 35 224 q 544 534 412 406 q 41 757 371 671 z "},"?":{"ha":996,"x_min":0,"x_max":930,"o":"m 379 1033 q 930 654 930 1006 q 413 241 413 501 q 310 448 310 275 l 310 517 l 689 620 q 517 895 689 807 l 482 895 q 138 689 328 895 q 0 930 0 745 q 379 1033 192 1033 m 310 138 l 551 138 l 551 0 l 310 0 l 310 138 z "},"@":{"ha":1410,"x_min":71,"x_max":1367,"o":"m 1006 675 q 831 775 940 752 q 610 747 722 798 q 437 612 498 696 q 360 434 376 528 q 371 259 345 340 q 462 124 396 178 q 627 63 528 71 q 813 106 726 56 q 924 188 899 157 q 947 114 940 137 q 1011 71 955 92 q 1120 79 1067 51 q 1237 216 1173 106 q 1308 454 1301 325 q 1290 683 1316 584 q 1171 899 1265 783 q 830 1067 1077 1016 q 421 1052 584 1118 q 178 841 259 985 q 84 531 96 696 q 114 211 71 366 q 254 -31 157 56 q 572 -168 351 -117 q 1003 -165 793 -218 q 1280 -56 1214 -111 q 1367 61 1346 0 l 1255 61 q 988 -73 1163 -25 q 587 -78 813 -121 q 272 79 361 -35 q 175 356 183 193 q 229 663 168 518 q 396 904 290 808 q 681 1001 503 1001 q 978 935 859 1001 q 1181 739 1097 869 q 1244 455 1265 610 q 1173 223 1224 300 q 1082 137 1122 147 q 1011 155 1042 127 q 983 267 981 183 q 1112 732 985 351 l 1036 757 l 1006 675 m 793 655 q 792 328 833 427 q 716 208 752 229 q 645 191 681 188 q 564 209 610 193 q 493 252 518 224 q 480 368 467 279 q 572 561 493 457 q 793 655 650 665 z "},"A":{"ha":873,"x_min":0,"x_max":814,"o":"m 65 1042 l 651 1042 l 814 0 l 521 0 l 488 228 l 228 228 l 228 0 l 0 0 l 0 33 l 195 781 l 65 781 l 65 1042 m 391 846 l 358 456 l 358 423 l 456 423 l 618 456 l 521 846 l 391 846 z "},"B":{"ha":777,"x_min":0,"x_max":713,"o":"m 648 939 l 648 680 q 421 583 629 583 l 421 518 q 713 195 713 518 l 713 97 q 615 33 713 33 l 0 0 l 0 1036 l 454 1036 q 648 939 648 1016 m 162 939 l 162 648 l 356 648 l 356 713 l 389 713 l 356 745 l 356 939 l 162 939 m 97 421 l 97 259 l 162 195 l 421 195 l 583 227 l 583 324 q 389 421 551 421 l 97 421 z "},"C":{"ha":884,"x_min":0,"x_max":806,"o":"m 672 1042 l 739 1042 l 773 873 l 773 672 l 471 672 l 504 907 l 302 907 l 235 840 l 235 571 q 336 134 235 134 l 471 134 l 471 302 l 806 302 l 806 67 l 739 0 l 538 0 q 0 269 0 0 l 0 739 q 201 1008 0 1008 l 672 1042 z "},"D":{"ha":818,"x_min":0,"x_max":749,"o":"m 65 1042 q 684 846 684 1042 q 749 130 749 572 l 749 98 q 65 0 409 0 l 0 0 l 0 977 l 65 1042 m 293 814 l 293 195 q 391 130 293 130 q 586 423 586 130 l 586 781 l 423 814 l 293 814 z "},"E":{"ha":747,"x_min":0,"x_max":684,"o":"m 684 1042 l 684 911 l 163 911 l 163 781 l 488 781 l 521 618 l 260 618 l 260 358 l 326 293 l 651 293 l 651 0 l 33 0 l 33 130 l 0 1009 l 33 1042 l 684 1042 z "},"F":{"ha":742,"x_min":0,"x_max":680,"o":"m 324 777 l 324 615 l 551 615 l 551 486 l 227 486 l 227 0 l 0 0 l 0 1036 l 680 1036 l 680 777 l 324 777 z "},"G":{"ha":848,"x_min":0,"x_max":781,"o":"m 33 1009 l 423 1042 l 651 1042 l 651 716 l 521 716 l 521 846 l 358 846 l 293 781 l 293 195 l 358 130 l 553 130 l 553 293 l 456 293 l 456 488 l 749 488 l 781 163 l 781 0 l 391 0 l 0 65 l 33 944 l 33 1009 z "},"H":{"ha":848,"x_min":0,"x_max":781,"o":"m 33 1042 l 293 1042 l 293 521 l 586 521 l 586 1042 l 749 1042 l 749 1009 l 781 0 l 586 0 l 586 326 l 456 326 l 391 260 l 391 0 l 0 0 l 33 651 l 33 1042 z "},"I":{"ha":396,"x_min":0,"x_max":334,"o":"m 33 1036 l 201 1036 l 267 969 l 301 100 l 334 0 l 0 0 l 33 334 l 33 869 l 67 903 l 33 936 l 33 1036 z "},"J":{"ha":843,"x_min":0,"x_max":781,"o":"m 163 1042 l 749 1042 l 749 1009 l 781 33 l 749 0 l 195 0 q 0 293 0 0 l 0 456 l 358 456 l 358 195 l 423 130 l 521 130 l 586 879 l 553 879 l 163 814 l 163 1042 z "},"K":{"ha":945,"x_min":0,"x_max":873,"o":"m 605 1042 l 873 1042 l 873 1008 l 504 437 l 840 0 l 504 0 q 336 370 394 370 l 168 370 l 168 34 l 0 0 l 0 975 l 336 975 l 302 806 l 302 706 l 370 638 l 437 638 q 605 1042 513 638 z "},"L":{"ha":655,"x_min":0,"x_max":597,"o":"m 220 1005 l 220 911 l 189 220 l 597 283 l 597 0 l 31 0 l 31 94 l 0 1036 l 220 1005 z "},"M":{"ha":1006,"x_min":0,"x_max":939,"o":"m 356 1004 l 486 454 q 648 1036 563 454 l 907 1036 l 907 972 l 939 0 l 680 0 l 713 486 l 648 486 q 486 0 648 195 l 454 0 l 292 745 l 227 745 l 292 33 l 0 33 l 33 195 l 33 486 l 0 972 l 33 1004 l 356 1004 z "},"N":{"ha":879,"x_min":0,"x_max":817,"o":"m 565 534 l 565 817 l 534 1036 l 817 1036 l 785 63 l 691 0 l 565 0 q 251 722 511 0 l 220 722 l 220 0 l 31 0 l 63 785 l 0 785 l 0 1036 l 251 1036 q 534 534 301 1036 l 565 534 z "},"O":{"ha":879,"x_min":0,"x_max":802,"o":"m 468 1036 l 535 1036 q 802 501 802 1036 l 802 234 q 401 0 802 0 l 234 0 q 0 301 0 0 l 0 468 q 134 1003 0 1003 l 468 1036 m 201 435 l 201 201 l 267 134 l 501 134 l 535 301 q 368 802 535 802 l 334 802 q 201 435 201 802 z "},"P":{"ha":742,"x_min":0,"x_max":684,"o":"m 684 879 l 684 456 q 326 228 684 228 l 326 0 l 0 0 l 0 1042 l 521 1042 l 684 879 m 163 944 l 163 326 l 195 326 l 358 358 l 358 879 l 293 944 l 163 944 z "},"Q":{"ha":828,"x_min":0,"x_max":761,"o":"m 380 1046 l 444 1046 q 634 951 634 1027 l 634 222 l 761 32 l 761 0 l 571 64 l 32 32 l 0 64 l 0 507 q 127 1015 0 1015 l 380 1046 m 254 191 l 286 159 l 475 159 l 539 222 l 539 571 l 507 793 l 349 793 q 254 191 254 793 z "},"R":{"ha":798,"x_min":0,"x_max":726,"o":"m 663 694 l 568 379 l 726 32 l 410 0 l 315 347 l 158 347 l 158 63 l 0 63 l 0 1042 l 189 1042 q 631 852 631 1042 l 663 694 m 284 947 l 284 505 l 505 505 l 505 852 l 410 947 l 284 947 z "},"S":{"ha":833,"x_min":0,"x_max":758,"o":"m 158 1042 l 252 1042 l 726 1010 l 726 947 l 694 726 l 315 821 l 252 821 l 189 758 l 189 694 l 694 410 l 758 221 q 0 0 758 0 l 0 63 l 32 284 l 347 252 q 536 347 511 252 q 0 821 0 561 q 158 1042 0 972 z "},"T":{"ha":783,"x_min":0,"x_max":716,"o":"m 651 1009 l 716 1009 l 716 781 l 391 781 l 391 260 l 423 33 l 326 33 l 163 0 l 195 716 l 0 716 l 0 1042 l 651 1009 z "},"U":{"ha":833,"x_min":0,"x_max":758,"o":"m 473 1010 l 631 1042 l 758 1042 l 758 126 q 410 0 758 47 q 0 284 0 0 l 0 947 l 32 916 l 221 916 l 221 252 q 410 158 221 199 l 473 252 l 473 1010 z "},"V":{"ha":833,"x_min":0,"x_max":758,"o":"m 252 1010 l 410 189 q 631 1042 491 189 l 694 1042 q 758 947 758 1042 q 505 0 578 0 l 189 0 l 0 1010 l 252 1010 z "},"W":{"ha":975,"x_min":0,"x_max":911,"o":"m 33 1009 l 0 1042 l 130 1042 l 130 911 q 228 228 130 228 l 260 228 l 293 326 l 260 846 l 260 911 l 586 911 l 586 456 l 618 293 l 684 293 l 684 879 l 716 1042 l 911 1042 l 781 0 l 618 0 q 488 391 545 0 l 423 391 q 293 0 374 0 q 65 456 65 0 l 33 1009 z "},"X":{"ha":873,"x_min":0,"x_max":806,"o":"m 67 1008 l 235 1042 l 235 1008 l 404 672 l 471 672 q 638 1008 580 1008 l 806 806 q 538 404 538 505 l 773 0 l 571 0 l 504 269 l 336 34 l 201 0 l 0 0 l 0 34 l 336 605 q 67 1008 280 606 z "},"Y":{"ha":772,"x_min":0,"x_max":705,"o":"m 61 1011 l 276 1042 l 276 981 l 184 429 l 214 337 l 490 337 l 521 429 l 429 981 l 674 981 l 705 827 q 521 276 705 276 l 460 214 l 460 0 l 214 0 l 214 245 q 0 368 0 288 l 0 1011 l 61 1011 z "},"Z":{"ha":879,"x_min":0,"x_max":817,"o":"m 0 1036 l 691 1036 l 691 1005 q 439 439 691 439 l 283 251 l 314 251 l 817 283 l 817 0 l 691 0 l 63 31 q 345 565 63 357 l 534 753 l 534 817 l 377 817 q 0 1036 0 817 z "},"[":{"ha":473,"x_min":5,"x_max":448,"o":"m 20 1051 l 45 1037 q 448 1057 230 1017 l 428 1004 l 422 828 q 193 842 280 842 q 195 -35 144 464 q 439 -35 295 -55 l 422 -95 l 426 -284 l 410 -263 q 63 -264 275 -243 l 33 -277 q 20 1051 5 470 z "},"\\":{"ha":706,"x_min":0,"x_max":706,"o":"m 235 1008 l 706 67 l 471 0 q 0 975 293 581 l 235 1042 l 235 1008 z "},"]":{"ha":467,"x_min":15,"x_max":458,"o":"m 442 1051 q 429 -262 458 477 l 400 -250 q 53 -248 188 -229 l 37 -269 l 41 -82 l 24 -22 q 268 -22 168 -43 q 269 844 318 470 q 41 831 182 844 l 35 1004 l 15 1057 q 417 1037 233 1017 l 442 1051 z "},"^":{"ha":652,"x_min":51,"x_max":528,"o":"m 51 574 l 229 574 l 340 863 l 437 579 l 528 579 l 335 1042 l 51 574 z "},"_":{"ha":772,"x_min":-20,"x_max":823,"o":"m 772 -178 l 808 -190 l 823 -292 l 730 -286 l 570 -281 l -20 -294 l -20 -180 l 461 -170 l 772 -178 z "},"`":{"ha":463,"x_min":60,"x_max":288,"o":"m 131 897 l 60 1043 l 217 1043 l 288 850 l 194 802 l 131 897 z "},"a":{"ha":742,"x_min":0,"x_max":677,"o":"m 406 711 q 677 170 677 711 l 677 68 l 644 34 l 644 0 l 136 34 l 34 34 l 0 339 l 34 339 l 170 372 l 406 372 l 474 440 l 474 474 l 406 542 l 339 542 q 271 440 271 542 l 237 440 l 0 474 l 0 677 l 406 711 m 305 271 l 305 170 l 372 102 l 542 136 l 542 305 l 372 339 l 305 271 z "},"b":{"ha":757,"x_min":0,"x_max":696,"o":"m 253 949 l 285 981 l 316 981 l 316 949 l 253 506 l 285 506 l 569 538 l 696 538 l 696 221 q 569 0 696 52 l 316 0 l 0 32 l 32 221 l 0 949 l 253 949 m 158 411 l 127 190 l 127 127 l 158 127 l 443 158 l 443 348 l 380 411 l 158 411 z "},"c":{"ha":736,"x_min":0,"x_max":686,"o":"m 261 718 l 425 718 q 686 392 686 718 l 425 392 l 457 425 l 457 588 l 294 621 l 229 131 l 359 131 q 425 229 425 131 l 588 229 l 621 261 l 653 261 l 686 65 l 131 0 l 65 0 l 0 65 l 0 392 q 261 718 0 718 z "},"d":{"ha":747,"x_min":0,"x_max":674,"o":"m 385 964 l 610 964 l 642 996 l 674 996 l 674 161 l 642 0 l 289 0 q 32 193 32 0 l 0 418 q 418 642 0 557 l 385 803 l 385 964 m 385 546 l 321 353 l 321 128 l 514 64 l 578 161 l 578 289 q 385 546 578 479 z "},"e":{"ha":732,"x_min":0,"x_max":675,"o":"m 257 707 l 354 707 q 675 354 675 707 q 257 290 531 290 l 129 290 l 129 257 q 321 161 161 161 l 418 161 l 418 225 l 644 225 l 644 193 q 547 0 611 0 l 96 0 q 0 257 20 0 q 257 707 0 707 m 96 515 l 96 354 l 193 321 q 418 418 418 354 l 418 450 l 354 515 l 96 515 z "},"f":{"ha":508,"x_min":0,"x_max":442,"o":"m 442 1010 l 442 758 l 221 758 l 221 821 l 126 821 l 95 663 l 95 473 l 158 410 l 410 410 l 410 284 l 252 315 l 221 284 l 221 0 l 0 0 l 0 916 l 442 1010 z "},"g":{"ha":727,"x_min":0,"x_max":659,"o":"m 73 642 l 183 642 l 439 607 l 439 677 l 659 677 q 586 398 635 398 q 403 538 403 398 l 330 538 l 256 468 l 256 259 l 330 189 l 439 189 l 403 363 l 623 328 l 623 -54 q 110 -298 623 -298 l 37 -298 l 37 -263 l 0 -89 l 37 15 q 293 -159 293 15 l 403 -159 l 439 15 l 439 119 l 110 119 q 0 328 0 155 l 73 642 z "},"h":{"ha":625,"x_min":0,"x_max":553,"o":"m 208 692 l 208 623 l 380 657 l 450 657 q 553 104 553 657 l 553 0 l 380 0 l 415 242 l 415 380 l 138 380 l 138 69 l 0 69 l 0 935 l 242 935 l 208 692 z "},"i":{"ha":340,"x_min":0,"x_max":267,"o":"m 76 985 q 267 707 229 985 l 0 707 l 0 906 l 76 985 m 267 596 l 229 0 l 0 0 l 0 596 l 267 596 z "},"j":{"ha":396,"x_min":0,"x_max":335,"o":"m 168 930 l 268 930 l 335 863 l 335 829 l 302 795 l 302 762 l 168 795 l 168 930 m 134 662 l 168 662 l 201 628 l 235 662 l 335 662 l 302 326 l 302 58 q 67 -76 302 -9 l 0 159 l 201 92 l 201 125 l 134 662 z "},"k":{"ha":706,"x_min":0,"x_max":649,"o":"m 0 991 l 273 991 l 273 957 l 239 444 l 273 410 l 307 410 q 478 684 361 684 q 649 547 634 617 l 444 376 l 444 342 q 615 0 615 145 l 478 0 q 376 307 396 0 l 342 342 l 171 342 l 171 307 l 239 0 l 34 0 l 34 478 l 0 888 l 34 888 l 0 922 l 0 991 z "},"l":{"ha":269,"x_min":0,"x_max":208,"o":"m 208 970 l 208 0 l 35 0 l 0 416 l 0 936 l 208 970 z "},"m":{"ha":1107,"x_min":0,"x_max":1045,"o":"m 279 732 l 279 627 q 592 732 412 732 l 627 732 l 662 627 l 976 732 q 1045 349 1045 595 l 1045 0 l 871 0 l 871 383 l 662 383 l 627 209 l 627 0 l 349 0 l 383 349 l 383 523 l 209 523 l 140 453 l 140 0 l 35 0 l 0 697 l 279 732 z "},"n":{"ha":762,"x_min":0,"x_max":706,"o":"m 106 706 l 282 741 q 389 635 282 635 q 706 494 706 592 l 706 282 q 600 0 706 22 l 459 0 l 389 71 l 389 424 l 282 424 l 282 0 l 0 0 l 141 600 l 106 635 l 106 706 z "},"o":{"ha":762,"x_min":0,"x_max":699,"o":"m 366 732 l 366 699 l 399 732 l 566 699 l 665 699 l 699 532 l 699 366 q 466 0 608 0 l 266 0 q 0 566 0 0 q 366 732 0 699 m 233 632 l 166 532 l 166 499 q 266 233 166 254 l 399 233 q 499 566 480 233 l 233 632 z "},"p":{"ha":757,"x_min":0,"x_max":689,"o":"m 35 691 l 482 691 q 689 588 689 669 l 689 243 l 620 174 l 345 174 l 172 209 l 172 -239 l 0 -239 l 35 -204 l 35 691 m 345 588 l 345 347 l 413 278 l 585 278 l 585 588 l 345 588 z "},"q":{"ha":813,"x_min":0,"x_max":747,"o":"m 249 747 l 249 711 l 284 747 l 533 747 q 711 355 656 747 l 640 178 l 675 178 l 747 106 l 569 0 l 463 106 l 427 0 l 249 0 q 0 427 0 0 q 249 747 0 666 m 106 320 l 214 249 l 355 249 l 355 284 l 320 391 l 355 427 l 463 427 l 463 355 l 533 427 l 533 533 l 463 604 l 249 604 q 106 320 142 604 z "},"r":{"ha":661,"x_min":0,"x_max":602,"o":"m 263 677 l 338 677 l 602 715 l 602 489 l 564 451 l 564 414 l 376 451 l 226 451 l 226 188 l 188 0 l 37 0 l 37 37 l 0 752 l 263 752 l 263 677 z "},"s":{"ha":813,"x_min":0,"x_max":739,"o":"m 185 813 l 629 813 l 703 739 l 703 629 l 370 629 l 370 591 q 739 148 739 319 l 591 0 l 0 0 l 74 333 l 407 259 l 444 296 l 444 370 q 111 739 111 566 l 185 813 z "},"t":{"ha":564,"x_min":0,"x_max":498,"o":"m 71 853 l 284 853 q 355 711 284 711 l 498 675 l 498 533 l 284 533 l 284 0 l 106 0 l 106 462 l 0 462 l 0 711 l 106 711 l 106 782 l 71 818 l 71 853 z "},"u":{"ha":813,"x_min":0,"x_max":752,"o":"m 188 752 l 263 752 l 226 226 l 263 226 l 489 188 l 602 226 l 451 715 l 489 715 l 640 752 l 677 752 l 752 677 l 752 188 q 301 0 752 48 q 0 188 104 0 l 0 715 l 188 752 z "},"v":{"ha":772,"x_min":0,"x_max":709,"o":"m 186 747 q 374 336 252 747 l 448 336 q 597 709 523 709 l 709 709 l 709 635 q 448 0 568 0 l 374 0 q 149 261 149 0 q 0 709 92 271 l 37 747 l 186 747 z "},"w":{"ha":1265,"x_min":0,"x_max":1199,"o":"m 225 712 l 300 150 l 375 150 q 487 600 469 150 l 450 712 l 787 712 l 787 375 l 862 300 l 899 300 l 937 337 q 1012 637 1012 337 l 1049 749 l 1086 749 l 1199 712 q 899 0 1086 148 l 675 0 l 675 150 l 637 150 q 562 0 562 150 l 187 0 l 0 712 l 225 749 l 225 712 z "},"x":{"ha":1016,"x_min":0,"x_max":960,"o":"m 71 747 l 214 783 l 249 747 l 285 783 l 463 604 l 640 783 l 818 675 l 818 604 l 604 534 l 604 498 l 960 0 l 640 0 l 569 249 l 534 249 l 285 0 l 0 0 l 0 35 l 355 463 l 71 747 z "},"y":{"ha":694,"x_min":0,"x_max":685,"o":"m 205 753 l 342 479 l 411 479 q 548 753 479 753 l 685 650 q 274 0 274 85 l 34 0 l 171 205 l 0 719 l 34 719 l 205 787 l 205 753 z "},"z":{"ha":818,"x_min":0,"x_max":742,"o":"m 74 742 l 297 705 l 593 742 l 593 631 l 408 186 l 445 186 l 742 260 l 742 222 q 593 0 655 0 l 111 0 l 74 186 l 74 334 q 334 519 171 334 l 334 557 l 0 557 q 74 742 9 742 z "},"{":{"ha":459,"x_min":1,"x_max":453,"o":"m 158 1017 l 183 1001 q 453 1016 235 974 l 439 934 l 444 815 l 267 822 q 247 625 261 703 q 144 397 233 547 q 248 189 230 267 q 266 -54 266 111 l 442 -43 l 429 -161 l 435 -269 l 410 -258 q 196 -252 276 -237 l 166 -267 l 163 31 q 123 269 153 199 q 1 391 92 339 q 124 522 96 460 q 161 772 151 585 l 158 1017 z "},"|":{"ha":361,"x_min":137,"x_max":260,"o":"m 260 1021 l 260 -254 l 157 -254 l 137 293 l 137 976 l 260 1021 z "},"}":{"ha":464,"x_min":5,"x_max":458,"o":"m 298 772 q 335 522 308 585 q 458 391 363 460 q 336 269 366 339 q 296 31 305 199 l 292 -267 l 263 -252 q 48 -258 183 -237 l 24 -269 l 31 -161 l 16 -43 l 193 -54 q 211 189 193 111 q 314 397 229 267 q 212 625 225 547 q 191 822 198 703 l 15 815 l 20 934 l 5 1016 q 275 1001 224 974 l 300 1017 l 298 772 z "},"~":{"ha":811,"x_min":106,"x_max":767,"o":"m 106 589 l 106 432 q 320 513 264 518 q 498 477 376 508 q 767 498 620 447 l 767 604 q 505 587 625 534 q 295 612 386 640 q 106 589 203 584 z "},"Ä":{"ha":926,"x_min":0,"x_max":0,"o":""},"Å":{"ha":926,"x_min":0,"x_max":0,"o":""},"Ç":{"ha":1003,"x_min":0,"x_max":0,"o":""},"É":{"ha":926,"x_min":0,"x_max":0,"o":""},"Ñ":{"ha":1003,"x_min":0,"x_max":0,"o":""},"Ö":{"ha":1080,"x_min":0,"x_max":0,"o":""},"Ü":{"ha":1003,"x_min":0,"x_max":0,"o":""},"á":{"ha":772,"x_min":0,"x_max":0,"o":""},"à":{"ha":772,"x_min":0,"x_max":0,"o":""},"â":{"ha":772,"x_min":0,"x_max":0,"o":""},"ä":{"ha":772,"x_min":0,"x_max":0,"o":""},"ã":{"ha":772,"x_min":0,"x_max":0,"o":""},"å":{"ha":772,"x_min":0,"x_max":0,"o":""},"ç":{"ha":694,"x_min":0,"x_max":0,"o":""},"é":{"ha":772,"x_min":0,"x_max":0,"o":""},"è":{"ha":772,"x_min":0,"x_max":0,"o":""},"ê":{"ha":772,"x_min":0,"x_max":0,"o":""},"ë":{"ha":772,"x_min":0,"x_max":0,"o":""},"í":{"ha":386,"x_min":0,"x_max":0,"o":""},"ì":{"ha":386,"x_min":0,"x_max":0,"o":""},"î":{"ha":386,"x_min":0,"x_max":0,"o":""},"ï":{"ha":386,"x_min":0,"x_max":0,"o":""},"ñ":{"ha":772,"x_min":0,"x_max":0,"o":""},"ó":{"ha":772,"x_min":0,"x_max":0,"o":""},"ò":{"ha":772,"x_min":0,"x_max":0,"o":""},"ô":{"ha":772,"x_min":0,"x_max":0,"o":""},"ö":{"ha":772,"x_min":0,"x_max":0,"o":""},"õ":{"ha":772,"x_min":0,"x_max":0,"o":""},"ú":{"ha":772,"x_min":0,"x_max":0,"o":""},"ù":{"ha":772,"x_min":0,"x_max":0,"o":""},"û":{"ha":772,"x_min":0,"x_max":0,"o":""},"ü":{"ha":772,"x_min":0,"x_max":0,"o":""},"†":{"ha":772,"x_min":0,"x_max":0,"o":""},"°":{"ha":555,"x_min":0,"x_max":0,"o":""},"¢":{"ha":772,"x_min":0,"x_max":0,"o":""},"£":{"ha":772,"x_min":0,"x_max":0,"o":""},"§":{"ha":772,"x_min":0,"x_max":0,"o":""},"•":{"ha":486,"x_min":0,"x_max":0,"o":""},"¶":{"ha":746,"x_min":0,"x_max":0,"o":""},"ß":{"ha":848,"x_min":0,"x_max":0,"o":""},"®":{"ha":1023,"x_min":0,"x_max":0,"o":""},"©":{"ha":1023,"x_min":0,"x_max":0,"o":""},"™":{"ha":1389,"x_min":0,"x_max":0,"o":""},"´":{"ha":463,"x_min":0,"x_max":0,"o":""},"¨":{"ha":463,"x_min":0,"x_max":0,"o":""},"≠":{"ha":762,"x_min":0,"x_max":0,"o":""},"Æ":{"ha":1389,"x_min":0,"x_max":0,"o":""},"Ø":{"ha":1080,"x_min":0,"x_max":0,"o":""},"∞":{"ha":990,"x_min":0,"x_max":0,"o":""},"±":{"ha":762,"x_min":0,"x_max":0,"o":""},"≤":{"ha":762,"x_min":0,"x_max":0,"o":""},"≥":{"ha":762,"x_min":0,"x_max":0,"o":""},"¥":{"ha":772,"x_min":0,"x_max":0,"o":""},"µ":{"ha":800,"x_min":0,"x_max":0,"o":""},"∂":{"ha":686,"x_min":0,"x_max":0,"o":""},"∑":{"ha":990,"x_min":0,"x_max":0,"o":""},"∏":{"ha":1143,"x_min":0,"x_max":0,"o":""},"∫":{"ha":380,"x_min":0,"x_max":0,"o":""},"ª":{"ha":514,"x_min":0,"x_max":0,"o":""},"º":{"ha":507,"x_min":0,"x_max":0,"o":""},"Ω":{"ha":1067,"x_min":0,"x_max":0,"o":""},"æ":{"ha":1235,"x_min":0,"x_max":0,"o":""},"ø":{"ha":848,"x_min":0,"x_max":0,"o":""},"¿":{"ha":848,"x_min":0,"x_max":0,"o":""},"¡":{"ha":463,"x_min":0,"x_max":0,"o":""},"¬":{"ha":811,"x_min":0,"x_max":0,"o":""},"√":{"ha":762,"x_min":0,"x_max":0,"o":""},"ƒ":{"ha":772,"x_min":0,"x_max":0,"o":""},"≈":{"ha":762,"x_min":0,"x_max":0,"o":""},"∆":{"ha":850,"x_min":0,"x_max":0,"o":""},"«":{"ha":772,"x_min":0,"x_max":0,"o":""},"»":{"ha":772,"x_min":0,"x_max":0,"o":""},"…":{"ha":1389,"x_min":0,"x_max":0,"o":""},"À":{"ha":926,"x_min":0,"x_max":0,"o":""},"Ã":{"ha":926,"x_min":0,"x_max":0,"o":""},"Õ":{"ha":1080,"x_min":0,"x_max":0,"o":""},"Œ":{"ha":1389,"x_min":0,"x_max":0,"o":""},"œ":{"ha":1311,"x_min":0,"x_max":0,"o":""},"–":{"ha":772,"x_min":0,"x_max":0,"o":""},"—":{"ha":1389,"x_min":0,"x_max":0,"o":""},"“":{"ha":463,"x_min":0,"x_max":0,"o":""},"”":{"ha":463,"x_min":0,"x_max":0,"o":""},"‘":{"ha":309,"x_min":0,"x_max":0,"o":""},"’":{"ha":309,"x_min":0,"x_max":0,"o":""},"÷":{"ha":762,"x_min":0,"x_max":0,"o":""},"◊":{"ha":686,"x_min":0,"x_max":0,"o":""},"ÿ":{"ha":694,"x_min":0,"x_max":0,"o":""},"Ÿ":{"ha":926,"x_min":0,"x_max":0,"o":""},"⁄":{"ha":232,"x_min":0,"x_max":0,"o":""},"€":{"ha":772,"x_min":0,"x_max":0,"o":""},"‹":{"ha":463,"x_min":0,"x_max":0,"o":""},"›":{"ha":463,"x_min":0,"x_max":0,"o":""},"":{"ha":694,"x_min":0,"x_max":0,"o":""},"":{"ha":694,"x_min":0,"x_max":0,"o":""},"‡":{"ha":772,"x_min":0,"x_max":0,"o":""},"·":{"ha":386,"x_min":0,"x_max":0,"o":""},"‚":{"ha":309,"x_min":0,"x_max":0,"o":""},"„":{"ha":463,"x_min":0,"x_max":0,"o":""},"‰":{"ha":1389,"x_min":0,"x_max":0,"o":""},"Â":{"ha":926,"x_min":0,"x_max":0,"o":""},"Ê":{"ha":926,"x_min":0,"x_max":0,"o":""},"Á":{"ha":926,"x_min":0,"x_max":0,"o":""},"Ë":{"ha":926,"x_min":0,"x_max":0,"o":""},"È":{"ha":926,"x_min":0,"x_max":0,"o":""},"Í":{"ha":386,"x_min":0,"x_max":0,"o":""},"Î":{"ha":386,"x_min":0,"x_max":0,"o":""},"Ï":{"ha":386,"x_min":0,"x_max":0,"o":""},"Ì":{"ha":386,"x_min":0,"x_max":0,"o":""},"Ó":{"ha":1080,"x_min":0,"x_max":0,"o":""},"Ô":{"ha":1080,"x_min":0,"x_max":0,"o":""},"Ò":{"ha":1080,"x_min":0,"x_max":0,"o":""},"Ú":{"ha":1003,"x_min":0,"x_max":0,"o":""},"Û":{"ha":1003,"x_min":0,"x_max":0,"o":""},"Ù":{"ha":1003,"x_min":0,"x_max":0,"o":""},"ı":{"ha":386,"x_min":0,"x_max":0,"o":""},"ˆ":{"ha":463,"x_min":0,"x_max":0,"o":""},"˜":{"ha":463,"x_min":0,"x_max":0,"o":""},"ˉ":{"ha":463,"x_min":0,"x_max":0,"o":""},"˘":{"ha":463,"x_min":0,"x_max":0,"o":""},"˙":{"ha":463,"x_min":0,"x_max":0,"o":""},"˚":{"ha":463,"x_min":0,"x_max":0,"o":""},"¸":{"ha":463,"x_min":0,"x_max":0,"o":""},"˝":{"ha":463,"x_min":0,"x_max":0,"o":""},"˛":{"ha":463,"x_min":0,"x_max":0,"o":""},"ˇ":{"ha":463,"x_min":0,"x_max":0,"o":""},"Ł":{"ha":772,"x_min":0,"x_max":0,"o":""},"ł":{"ha":309,"x_min":0,"x_max":0,"o":""},"Š":{"ha":926,"x_min":0,"x_max":0,"o":""},"š":{"ha":694,"x_min":0,"x_max":0,"o":""},"Ž":{"ha":848,"x_min":0,"x_max":0,"o":""},"ž":{"ha":694,"x_min":0,"x_max":0,"o":""},"¦":{"ha":361,"x_min":0,"x_max":0,"o":""},"Ð":{"ha":1003,"x_min":0,"x_max":0,"o":""},"ð":{"ha":772,"x_min":0,"x_max":0,"o":""},"Ý":{"ha":926,"x_min":0,"x_max":0,"o":""},"ý":{"ha":694,"x_min":0,"x_max":0,"o":""},"Þ":{"ha":926,"x_min":0,"x_max":0,"o":""},"þ":{"ha":772,"x_min":0,"x_max":0,"o":""},"−":{"ha":811,"x_min":0,"x_max":0,"o":""},"×":{"ha":811,"x_min":0,"x_max":0,"o":""},"¹":{"ha":463,"x_min":0,"x_max":0,"o":""},"²":{"ha":463,"x_min":0,"x_max":0,"o":""},"³":{"ha":463,"x_min":0,"x_max":0,"o":""},"½":{"ha":1158,"x_min":0,"x_max":0,"o":""},"¼":{"ha":1158,"x_min":0,"x_max":0,"o":""},"¾":{"ha":1158,"x_min":0,"x_max":0,"o":""},"₣":{"ha":772,"x_min":0,"x_max":0,"o":""},"Ğ":{"ha":1080,"x_min":0,"x_max":0,"o":""},"ğ":{"ha":772,"x_min":0,"x_max":0,"o":""},"İ":{"ha":386,"x_min":0,"x_max":0,"o":""},"Ş":{"ha":926,"x_min":0,"x_max":0,"o":""},"ş":{"ha":694,"x_min":0,"x_max":0,"o":""},"Ć":{"ha":1003,"x_min":0,"x_max":0,"o":""},"ć":{"ha":694,"x_min":0,"x_max":0,"o":""},"Č":{"ha":1003,"x_min":0,"x_max":0,"o":""},"č":{"ha":694,"x_min":0,"x_max":0,"o":""},"đ":{"ha":772,"x_min":0,"x_max":0,"o":""},"¤":{"ha":772,"x_min":0,"x_max":0,"o":""},"¯":{"ha":767,"x_min":0,"x_max":0,"o":""},"Ā":{"ha":926,"x_min":0,"x_max":0,"o":""},"ā":{"ha":772,"x_min":0,"x_max":0,"o":""},"Ă":{"ha":926,"x_min":0,"x_max":0,"o":""},"ă":{"ha":772,"x_min":0,"x_max":0,"o":""},"Ą":{"ha":926,"x_min":0,"x_max":0,"o":""},"ą":{"ha":772,"x_min":0,"x_max":0,"o":""},"Ĉ":{"ha":1003,"x_min":0,"x_max":0,"o":""},"ĉ":{"ha":694,"x_min":0,"x_max":0,"o":""},"Ċ":{"ha":1003,"x_min":0,"x_max":0,"o":""},"ċ":{"ha":694,"x_min":0,"x_max":0,"o":""},"Ď":{"ha":1003,"x_min":0,"x_max":0,"o":""},"ď":{"ha":854,"x_min":0,"x_max":0,"o":""},"Đ":{"ha":1003,"x_min":0,"x_max":0,"o":""},"Ē":{"ha":926,"x_min":0,"x_max":0,"o":""},"ē":{"ha":772,"x_min":0,"x_max":0,"o":""},"Ĕ":{"ha":926,"x_min":0,"x_max":0,"o":""},"ĕ":{"ha":772,"x_min":0,"x_max":0,"o":""},"Ė":{"ha":926,"x_min":0,"x_max":0,"o":""},"ė":{"ha":772,"x_min":0,"x_max":0,"o":""},"Ę":{"ha":926,"x_min":0,"x_max":0,"o":""},"ę":{"ha":772,"x_min":0,"x_max":0,"o":""},"Ě":{"ha":926,"x_min":0,"x_max":0,"o":""},"ě":{"ha":772,"x_min":0,"x_max":0,"o":""},"Ĝ":{"ha":1080,"x_min":0,"x_max":0,"o":""},"ĝ":{"ha":772,"x_min":0,"x_max":0,"o":""},"Ġ":{"ha":1080,"x_min":0,"x_max":0,"o":""},"ġ":{"ha":772,"x_min":0,"x_max":0,"o":""},"Ģ":{"ha":1080,"x_min":0,"x_max":0,"o":""},"ģ":{"ha":772,"x_min":0,"x_max":0,"o":""},"Ĥ":{"ha":1003,"x_min":0,"x_max":0,"o":""},"ĥ":{"ha":772,"x_min":0,"x_max":0,"o":""},"Ħ":{"ha":1003,"x_min":0,"x_max":0,"o":""},"ħ":{"ha":772,"x_min":0,"x_max":0,"o":""},"Ĩ":{"ha":386,"x_min":0,"x_max":0,"o":""},"ĩ":{"ha":386,"x_min":0,"x_max":0,"o":""},"Ī":{"ha":386,"x_min":0,"x_max":0,"o":""},"ī":{"ha":386,"x_min":0,"x_max":0,"o":""},"Ĭ":{"ha":386,"x_min":0,"x_max":0,"o":""},"ĭ":{"ha":386,"x_min":0,"x_max":0,"o":""},"Į":{"ha":386,"x_min":0,"x_max":0,"o":""},"į":{"ha":309,"x_min":0,"x_max":0,"o":""},"Ĳ":{"ha":1021,"x_min":0,"x_max":0,"o":""},"ĳ":{"ha":616,"x_min":0,"x_max":0,"o":""},"Ĵ":{"ha":694,"x_min":0,"x_max":0,"o":""},"ĵ":{"ha":309,"x_min":0,"x_max":0,"o":""},"Ķ":{"ha":926,"x_min":0,"x_max":0,"o":""},"ķ":{"ha":694,"x_min":0,"x_max":0,"o":""},"ĸ":{"ha":694,"x_min":0,"x_max":0,"o":""},"Ĺ":{"ha":772,"x_min":0,"x_max":0,"o":""},"ĺ":{"ha":309,"x_min":0,"x_max":0,"o":""},"Ļ":{"ha":772,"x_min":0,"x_max":0,"o":""},"ļ":{"ha":309,"x_min":0,"x_max":0,"o":""},"Ľ":{"ha":772,"x_min":0,"x_max":0,"o":""},"ľ":{"ha":405,"x_min":0,"x_max":0,"o":""},"Ŀ":{"ha":772,"x_min":0,"x_max":0,"o":""},"ŀ":{"ha":464,"x_min":0,"x_max":0,"o":""},"Ń":{"ha":1003,"x_min":0,"x_max":0,"o":""},"ń":{"ha":772,"x_min":0,"x_max":0,"o":""},"Ņ":{"ha":1003,"x_min":0,"x_max":0,"o":""},"ņ":{"ha":772,"x_min":0,"x_max":0,"o":""},"Ň":{"ha":1003,"x_min":0,"x_max":0,"o":""},"ň":{"ha":772,"x_min":0,"x_max":0,"o":""},"ŉ":{"ha":839,"x_min":0,"x_max":0,"o":""},"Ŋ":{"ha":1004,"x_min":0,"x_max":0,"o":""},"ŋ":{"ha":772,"x_min":0,"x_max":0,"o":""},"Ō":{"ha":1080,"x_min":0,"x_max":0,"o":""},"ō":{"ha":772,"x_min":0,"x_max":0,"o":""},"Ŏ":{"ha":1080,"x_min":0,"x_max":0,"o":""},"ŏ":{"ha":772,"x_min":0,"x_max":0,"o":""},"Ő":{"ha":1080,"x_min":0,"x_max":0,"o":""},"ő":{"ha":772,"x_min":0,"x_max":0,"o":""},"Ŕ":{"ha":1003,"x_min":0,"x_max":0,"o":""},"ŕ":{"ha":463,"x_min":0,"x_max":0,"o":""},"Ŗ":{"ha":1003,"x_min":0,"x_max":0,"o":""},"ŗ":{"ha":463,"x_min":0,"x_max":0,"o":""},"Ř":{"ha":1003,"x_min":0,"x_max":0,"o":""},"ř":{"ha":463,"x_min":0,"x_max":0,"o":""},"Ś":{"ha":926,"x_min":0,"x_max":0,"o":""},"ś":{"ha":694,"x_min":0,"x_max":0,"o":""},"Ŝ":{"ha":926,"x_min":0,"x_max":0,"o":""},"ŝ":{"ha":694,"x_min":0,"x_max":0,"o":""},"Ţ":{"ha":848,"x_min":0,"x_max":0,"o":""},"ţ":{"ha":386,"x_min":0,"x_max":0,"o":""},"Ť":{"ha":848,"x_min":0,"x_max":0,"o":""},"ť":{"ha":521,"x_min":0,"x_max":0,"o":""},"Ŧ":{"ha":848,"x_min":0,"x_max":0,"o":""},"ŧ":{"ha":386,"x_min":0,"x_max":0,"o":""},"Ũ":{"ha":1003,"x_min":0,"x_max":0,"o":""},"ũ":{"ha":772,"x_min":0,"x_max":0,"o":""},"Ū":{"ha":1003,"x_min":0,"x_max":0,"o":""},"ū":{"ha":772,"x_min":0,"x_max":0,"o":""},"Ŭ":{"ha":1003,"x_min":0,"x_max":0,"o":""},"ŭ":{"ha":772,"x_min":0,"x_max":0,"o":""},"Ů":{"ha":1003,"x_min":0,"x_max":0,"o":""},"ů":{"ha":772,"x_min":0,"x_max":0,"o":""},"Ű":{"ha":1003,"x_min":0,"x_max":0,"o":""},"ű":{"ha":772,"x_min":0,"x_max":0,"o":""},"Ų":{"ha":1003,"x_min":0,"x_max":0,"o":""},"ų":{"ha":772,"x_min":0,"x_max":0,"o":""},"Ŵ":{"ha":1311,"x_min":0,"x_max":0,"o":""},"ŵ":{"ha":1003,"x_min":0,"x_max":0,"o":""},"Ŷ":{"ha":926,"x_min":0,"x_max":0,"o":""},"ŷ":{"ha":694,"x_min":0,"x_max":0,"o":""},"Ź":{"ha":848,"x_min":0,"x_max":0,"o":""},"ź":{"ha":694,"x_min":0,"x_max":0,"o":""},"Ż":{"ha":848,"x_min":0,"x_max":0,"o":""},"ż":{"ha":694,"x_min":0,"x_max":0,"o":""},"ſ":{"ha":309,"x_min":0,"x_max":0,"o":""},"Ǻ":{"ha":926,"x_min":0,"x_max":0,"o":""},"ǻ":{"ha":772,"x_min":0,"x_max":0,"o":""},"Ǽ":{"ha":1389,"x_min":0,"x_max":0,"o":""},"ǽ":{"ha":1235,"x_min":0,"x_max":0,"o":""},"Ǿ":{"ha":1080,"x_min":0,"x_max":0,"o":""},"ǿ":{"ha":848,"x_min":0,"x_max":0,"o":""},"΄":{"ha":463,"x_min":0,"x_max":0,"o":""},"΅":{"ha":463,"x_min":0,"x_max":0,"o":""},"Ά":{"ha":927,"x_min":0,"x_max":0,"o":""},"·":{"ha":386,"x_min":0,"x_max":0,"o":""},"Έ":{"ha":1089,"x_min":0,"x_max":0,"o":""},"Ή":{"ha":1164,"x_min":0,"x_max":0,"o":""},"Ί":{"ha":533,"x_min":0,"x_max":0,"o":""},"Ό":{"ha":1076,"x_min":0,"x_max":0,"o":""},"Ύ":{"ha":1188,"x_min":0,"x_max":0,"o":""},"Ώ":{"ha":1045,"x_min":0,"x_max":0,"o":""},"ΐ":{"ha":309,"x_min":0,"x_max":0,"o":""},"Α":{"ha":926,"x_min":0,"x_max":0,"o":""},"Β":{"ha":926,"x_min":0,"x_max":0,"o":""},"Γ":{"ha":765,"x_min":0,"x_max":0,"o":""},"Δ":{"ha":928,"x_min":0,"x_max":0,"o":""},"Ε":{"ha":926,"x_min":0,"x_max":0,"o":""},"Ζ":{"ha":848,"x_min":0,"x_max":0,"o":""},"Η":{"ha":1003,"x_min":0,"x_max":0,"o":""},"Θ":{"ha":1080,"x_min":0,"x_max":0,"o":""},"Ι":{"ha":386,"x_min":0,"x_max":0,"o":""},"Κ":{"ha":926,"x_min":0,"x_max":0,"o":""},"Λ":{"ha":928,"x_min":0,"x_max":0,"o":""},"Μ":{"ha":1157,"x_min":0,"x_max":0,"o":""},"Ν":{"ha":1003,"x_min":0,"x_max":0,"o":""},"Ξ":{"ha":903,"x_min":0,"x_max":0,"o":""},"Ο":{"ha":1080,"x_min":0,"x_max":0,"o":""},"Π":{"ha":1003,"x_min":0,"x_max":0,"o":""},"Ρ":{"ha":926,"x_min":0,"x_max":0,"o":""},"Σ":{"ha":859,"x_min":0,"x_max":0,"o":""},"Τ":{"ha":848,"x_min":0,"x_max":0,"o":""},"Υ":{"ha":926,"x_min":0,"x_max":0,"o":""},"Φ":{"ha":1108,"x_min":0,"x_max":0,"o":""},"Χ":{"ha":926,"x_min":0,"x_max":0,"o":""},"Ψ":{"ha":1160,"x_min":0,"x_max":0,"o":""},"Ω":{"ha":1038,"x_min":0,"x_max":0,"o":""},"Ϊ":{"ha":386,"x_min":0,"x_max":0,"o":""},"Ϋ":{"ha":926,"x_min":0,"x_max":0,"o":""},"ά":{"ha":803,"x_min":0,"x_max":0,"o":""},"έ":{"ha":619,"x_min":0,"x_max":0,"o":""},"ή":{"ha":772,"x_min":0,"x_max":0,"o":""},"ί":{"ha":309,"x_min":0,"x_max":0,"o":""},"ΰ":{"ha":760,"x_min":0,"x_max":0,"o":""},"α":{"ha":803,"x_min":0,"x_max":0,"o":""},"β":{"ha":799,"x_min":0,"x_max":0,"o":""},"γ":{"ha":694,"x_min":0,"x_max":0,"o":""},"δ":{"ha":773,"x_min":0,"x_max":0,"o":""},"ε":{"ha":619,"x_min":0,"x_max":0,"o":""},"ζ":{"ha":612,"x_min":0,"x_max":0,"o":""},"η":{"ha":772,"x_min":0,"x_max":0,"o":""},"θ":{"ha":772,"x_min":0,"x_max":0,"o":""},"ι":{"ha":309,"x_min":0,"x_max":0,"o":""},"κ":{"ha":694,"x_min":0,"x_max":0,"o":""},"λ":{"ha":694,"x_min":0,"x_max":0,"o":""},"μ":{"ha":800,"x_min":0,"x_max":0,"o":""},"ν":{"ha":694,"x_min":0,"x_max":0,"o":""},"ξ":{"ha":622,"x_min":0,"x_max":0,"o":""},"ο":{"ha":772,"x_min":0,"x_max":0,"o":""},"π":{"ha":958,"x_min":0,"x_max":0,"o":""},"ρ":{"ha":790,"x_min":0,"x_max":0,"o":""},"ς":{"ha":669,"x_min":0,"x_max":0,"o":""},"σ":{"ha":857,"x_min":0,"x_max":0,"o":""},"τ":{"ha":549,"x_min":0,"x_max":0,"o":""},"υ":{"ha":760,"x_min":0,"x_max":0,"o":""},"φ":{"ha":901,"x_min":0,"x_max":0,"o":""},"χ":{"ha":729,"x_min":0,"x_max":0,"o":""},"ψ":{"ha":990,"x_min":0,"x_max":0,"o":""},"ω":{"ha":1084,"x_min":0,"x_max":0,"o":""},"ϊ":{"ha":309,"x_min":0,"x_max":0,"o":""},"ϋ":{"ha":760,"x_min":0,"x_max":0,"o":""},"ό":{"ha":772,"x_min":0,"x_max":0,"o":""},"ύ":{"ha":760,"x_min":0,"x_max":0,"o":""},"ώ":{"ha":1084,"x_min":0,"x_max":0,"o":""},"Ё":{"ha":927,"x_min":0,"x_max":0,"o":""},"Ђ":{"ha":1201,"x_min":0,"x_max":0,"o":""},"Ѓ":{"ha":752,"x_min":0,"x_max":0,"o":""},"Є":{"ha":998,"x_min":0,"x_max":0,"o":""},"Ѕ":{"ha":926,"x_min":0,"x_max":0,"o":""},"І":{"ha":386,"x_min":0,"x_max":0,"o":""},"Ї":{"ha":386,"x_min":0,"x_max":0,"o":""},"Ј":{"ha":694,"x_min":0,"x_max":0,"o":""},"Љ":{"ha":1468,"x_min":0,"x_max":0,"o":""},"Њ":{"ha":1403,"x_min":0,"x_max":0,"o":""},"Ћ":{"ha":1186,"x_min":0,"x_max":0,"o":""},"Ќ":{"ha":809,"x_min":0,"x_max":0,"o":""},"Ў":{"ha":882,"x_min":0,"x_max":0,"o":""},"Џ":{"ha":998,"x_min":0,"x_max":0,"o":""},"А":{"ha":926,"x_min":0,"x_max":0,"o":""},"Б":{"ha":911,"x_min":0,"x_max":0,"o":""},"В":{"ha":926,"x_min":0,"x_max":0,"o":""},"Г":{"ha":752,"x_min":0,"x_max":0,"o":""},"Д":{"ha":941,"x_min":0,"x_max":0,"o":""},"Е":{"ha":926,"x_min":0,"x_max":0,"o":""},"Ж":{"ha":1282,"x_min":0,"x_max":0,"o":""},"З":{"ha":839,"x_min":0,"x_max":0,"o":""},"И":{"ha":998,"x_min":0,"x_max":0,"o":""},"Й":{"ha":998,"x_min":0,"x_max":0,"o":""},"К":{"ha":809,"x_min":0,"x_max":0,"o":""},"Л":{"ha":911,"x_min":0,"x_max":0,"o":""},"М":{"ha":1157,"x_min":0,"x_max":0,"o":""},"Н":{"ha":1003,"x_min":0,"x_max":0,"o":""},"О":{"ha":1080,"x_min":0,"x_max":0,"o":""},"П":{"ha":998,"x_min":0,"x_max":0,"o":""},"Р":{"ha":926,"x_min":0,"x_max":0,"o":""},"С":{"ha":1003,"x_min":0,"x_max":0,"o":""},"Т":{"ha":848,"x_min":0,"x_max":0,"o":""},"У":{"ha":882,"x_min":0,"x_max":0,"o":""},"Ф":{"ha":1056,"x_min":0,"x_max":0,"o":""},"Х":{"ha":926,"x_min":0,"x_max":0,"o":""},"Ц":{"ha":1027,"x_min":0,"x_max":0,"o":""},"Ч":{"ha":926,"x_min":0,"x_max":0,"o":""},"Ш":{"ha":1273,"x_min":0,"x_max":0,"o":""},"Щ":{"ha":1302,"x_min":0,"x_max":0,"o":""},"Ъ":{"ha":1099,"x_min":0,"x_max":0,"o":""},"Ы":{"ha":1230,"x_min":0,"x_max":0,"o":""},"Ь":{"ha":911,"x_min":0,"x_max":0,"o":""},"Э":{"ha":998,"x_min":0,"x_max":0,"o":""},"Ю":{"ha":1403,"x_min":0,"x_max":0,"o":""},"Я":{"ha":1003,"x_min":0,"x_max":0,"o":""},"а":{"ha":772,"x_min":0,"x_max":0,"o":""},"б":{"ha":795,"x_min":0,"x_max":0,"o":""},"в":{"ha":738,"x_min":0,"x_max":0,"o":""},"г":{"ha":507,"x_min":0,"x_max":0,"o":""},"д":{"ha":810,"x_min":0,"x_max":0,"o":""},"е":{"ha":772,"x_min":0,"x_max":0,"o":""},"ж":{"ha":929,"x_min":0,"x_max":0,"o":""},"з":{"ha":637,"x_min":0,"x_max":0,"o":""},"и":{"ha":776,"x_min":0,"x_max":0,"o":""},"й":{"ha":776,"x_min":0,"x_max":0,"o":""},"к":{"ha":608,"x_min":0,"x_max":0,"o":""},"л":{"ha":810,"x_min":0,"x_max":0,"o":""},"м":{"ha":955,"x_min":0,"x_max":0,"o":""},"н":{"ha":767,"x_min":0,"x_max":0,"o":""},"о":{"ha":772,"x_min":0,"x_max":0,"o":""},"п":{"ha":752,"x_min":0,"x_max":0,"o":""},"р":{"ha":772,"x_min":0,"x_max":0,"o":""},"с":{"ha":694,"x_min":0,"x_max":0,"o":""},"т":{"ha":636,"x_min":0,"x_max":0,"o":""},"у":{"ha":694,"x_min":0,"x_max":0,"o":""},"ф":{"ha":1143,"x_min":0,"x_max":0,"o":""},"х":{"ha":694,"x_min":0,"x_max":0,"o":""},"ц":{"ha":795,"x_min":0,"x_max":0,"o":""},"ч":{"ha":724,"x_min":0,"x_max":0,"o":""},"ш":{"ha":1114,"x_min":0,"x_max":0,"o":""},"щ":{"ha":1143,"x_min":0,"x_max":0,"o":""},"ъ":{"ha":868,"x_min":0,"x_max":0,"o":""},"ы":{"ha":998,"x_min":0,"x_max":0,"o":""},"ь":{"ha":724,"x_min":0,"x_max":0,"o":""},"э":{"ha":709,"x_min":0,"x_max":0,"o":""},"ю":{"ha":1042,"x_min":0,"x_max":0,"o":""},"я":{"ha":752,"x_min":0,"x_max":0,"o":""},"ё":{"ha":772,"x_min":0,"x_max":0,"o":""},"ђ":{"ha":772,"x_min":0,"x_max":0,"o":""},"ѓ":{"ha":507,"x_min":0,"x_max":0,"o":""},"є":{"ha":709,"x_min":0,"x_max":0,"o":""},"ѕ":{"ha":694,"x_min":0,"x_max":0,"o":""},"і":{"ha":309,"x_min":0,"x_max":0,"o":""},"ї":{"ha":386,"x_min":0,"x_max":0,"o":""},"ј":{"ha":309,"x_min":0,"x_max":0,"o":""},"љ":{"ha":1259,"x_min":0,"x_max":0,"o":""},"њ":{"ha":1128,"x_min":0,"x_max":0,"o":""},"ћ":{"ha":772,"x_min":0,"x_max":0,"o":""},"ќ":{"ha":608,"x_min":0,"x_max":0,"o":""},"ў":{"ha":694,"x_min":0,"x_max":0,"o":""},"џ":{"ha":767,"x_min":0,"x_max":0,"o":""},"Ґ":{"ha":679,"x_min":0,"x_max":0,"o":""},"ґ":{"ha":571,"x_min":0,"x_max":0,"o":""},"Ẁ":{"ha":1311,"x_min":0,"x_max":0,"o":""},"ẁ":{"ha":1003,"x_min":0,"x_max":0,"o":""},"Ẃ":{"ha":1311,"x_min":0,"x_max":0,"o":""},"ẃ":{"ha":1003,"x_min":0,"x_max":0,"o":""},"Ẅ":{"ha":1311,"x_min":0,"x_max":0,"o":""},"ẅ":{"ha":1003,"x_min":0,"x_max":0,"o":""},"Ỳ":{"ha":926,"x_min":0,"x_max":0,"o":""},"ỳ":{"ha":694,"x_min":0,"x_max":0,"o":""},"―":{"ha":1389,"x_min":0,"x_max":0,"o":""},"‗":{"ha":767,"x_min":0,"x_max":0,"o":""},"‛":{"ha":309,"x_min":0,"x_max":0,"o":""},"′":{"ha":260,"x_min":0,"x_max":0,"o":""},"″":{"ha":492,"x_min":0,"x_max":0,"o":""},"‼":{"ha":694,"x_min":0,"x_max":0,"o":""},"‾":{"ha":463,"x_min":0,"x_max":0,"o":""},"ⁿ":{"ha":507,"x_min":0,"x_max":0,"o":""},"₤":{"ha":772,"x_min":0,"x_max":0,"o":""},"₧":{"ha":1519,"x_min":0,"x_max":0,"o":""},"℅":{"ha":1230,"x_min":0,"x_max":0,"o":""},"ℓ":{"ha":449,"x_min":0,"x_max":0,"o":""},"№":{"ha":1490,"x_min":0,"x_max":0,"o":""},"℮":{"ha":833,"x_min":0,"x_max":0,"o":""},"⅛":{"ha":1158,"x_min":0,"x_max":0,"o":""},"⅜":{"ha":1158,"x_min":0,"x_max":0,"o":""},"⅝":{"ha":1158,"x_min":0,"x_max":0,"o":""},"⅞":{"ha":1158,"x_min":0,"x_max":0,"o":""},"←":{"ha":1389,"x_min":0,"x_max":0,"o":""},"↑":{"ha":694,"x_min":0,"x_max":0,"o":""},"→":{"ha":1389,"x_min":0,"x_max":0,"o":""},"↓":{"ha":694,"x_min":0,"x_max":0,"o":""},"↔":{"ha":1389,"x_min":0,"x_max":0,"o":""},"↕":{"ha":694,"x_min":0,"x_max":0,"o":""},"↨":{"ha":694,"x_min":0,"x_max":0,"o":""},"∟":{"ha":1360,"x_min":0,"x_max":0,"o":""},"∩":{"ha":998,"x_min":0,"x_max":0,"o":""},"≡":{"ha":810,"x_min":0,"x_max":0,"o":""},"⌂":{"ha":839,"x_min":0,"x_max":0,"o":""},"⌐":{"ha":811,"x_min":0,"x_max":0,"o":""},"⌠":{"ha":839,"x_min":0,"x_max":0,"o":""},"⌡":{"ha":839,"x_min":0,"x_max":0,"o":""},"─":{"ha":984,"x_min":0,"x_max":0,"o":""},"│":{"ha":868,"x_min":0,"x_max":0,"o":""},"┌":{"ha":984,"x_min":0,"x_max":0,"o":""},"┐":{"ha":984,"x_min":0,"x_max":0,"o":""},"└":{"ha":984,"x_min":0,"x_max":0,"o":""},"┘":{"ha":984,"x_min":0,"x_max":0,"o":""},"├":{"ha":984,"x_min":0,"x_max":0,"o":""},"┤":{"ha":984,"x_min":0,"x_max":0,"o":""},"┬":{"ha":984,"x_min":0,"x_max":0,"o":""},"┴":{"ha":984,"x_min":0,"x_max":0,"o":""},"┼":{"ha":984,"x_min":0,"x_max":0,"o":""},"═":{"ha":984,"x_min":0,"x_max":0,"o":""},"║":{"ha":984,"x_min":0,"x_max":0,"o":""},"╒":{"ha":984,"x_min":0,"x_max":0,"o":""},"╓":{"ha":984,"x_min":0,"x_max":0,"o":""},"╔":{"ha":984,"x_min":0,"x_max":0,"o":""},"╕":{"ha":984,"x_min":0,"x_max":0,"o":""},"╖":{"ha":984,"x_min":0,"x_max":0,"o":""},"╗":{"ha":984,"x_min":0,"x_max":0,"o":""},"╘":{"ha":984,"x_min":0,"x_max":0,"o":""},"╙":{"ha":984,"x_min":0,"x_max":0,"o":""},"╚":{"ha":984,"x_min":0,"x_max":0,"o":""},"╛":{"ha":984,"x_min":0,"x_max":0,"o":""},"╜":{"ha":984,"x_min":0,"x_max":0,"o":""},"╝":{"ha":984,"x_min":0,"x_max":0,"o":""},"╞":{"ha":984,"x_min":0,"x_max":0,"o":""},"╟":{"ha":984,"x_min":0,"x_max":0,"o":""},"╠":{"ha":984,"x_min":0,"x_max":0,"o":""},"╡":{"ha":984,"x_min":0,"x_max":0,"o":""},"╢":{"ha":984,"x_min":0,"x_max":0,"o":""},"╣":{"ha":984,"x_min":0,"x_max":0,"o":""},"╤":{"ha":984,"x_min":0,"x_max":0,"o":""},"╥":{"ha":984,"x_min":0,"x_max":0,"o":""},"╦":{"ha":984,"x_min":0,"x_max":0,"o":""},"╧":{"ha":984,"x_min":0,"x_max":0,"o":""},"╨":{"ha":984,"x_min":0,"x_max":0,"o":""},"╩":{"ha":984,"x_min":0,"x_max":0,"o":""},"╪":{"ha":984,"x_min":0,"x_max":0,"o":""},"╫":{"ha":984,"x_min":0,"x_max":0,"o":""},"╬":{"ha":984,"x_min":0,"x_max":0,"o":""},"▀":{"ha":984,"x_min":0,"x_max":0,"o":""},"▄":{"ha":984,"x_min":0,"x_max":0,"o":""},"█":{"ha":984,"x_min":0,"x_max":0,"o":""},"▌":{"ha":984,"x_min":0,"x_max":0,"o":""},"▐":{"ha":984,"x_min":0,"x_max":0,"o":""},"░":{"ha":984,"x_min":0,"x_max":0,"o":""},"▒":{"ha":984,"x_min":0,"x_max":0,"o":""},"▓":{"ha":1013,"x_min":0,"x_max":0,"o":""},"■":{"ha":839,"x_min":0,"x_max":0,"o":""},"□":{"ha":839,"x_min":0,"x_max":0,"o":""},"▪":{"ha":492,"x_min":0,"x_max":0,"o":""},"▫":{"ha":492,"x_min":0,"x_max":0,"o":""},"▬":{"ha":1389,"x_min":0,"x_max":0,"o":""},"▲":{"ha":1375,"x_min":0,"x_max":0,"o":""},"►":{"ha":1375,"x_min":0,"x_max":0,"o":""},"▼":{"ha":1375,"x_min":0,"x_max":0,"o":""},"◄":{"ha":1375,"x_min":0,"x_max":0,"o":""},"○":{"ha":839,"x_min":0,"x_max":0,"o":""},"●":{"ha":839,"x_min":0,"x_max":0,"o":""},"◘":{"ha":839,"x_min":0,"x_max":0,"o":""},"◙":{"ha":839,"x_min":0,"x_max":0,"o":""},"◦":{"ha":492,"x_min":0,"x_max":0,"o":""},"☺":{"ha":1418,"x_min":0,"x_max":0,"o":""},"☻":{"ha":1461,"x_min":0,"x_max":0,"o":""},"☼":{"ha":1273,"x_min":0,"x_max":0,"o":""},"♀":{"ha":1042,"x_min":0,"x_max":0,"o":""},"♂":{"ha":1042,"x_min":0,"x_max":0,"o":""},"♠":{"ha":738,"x_min":0,"x_max":0,"o":""},"♣":{"ha":911,"x_min":0,"x_max":0,"o":""},"♥":{"ha":825,"x_min":0,"x_max":0,"o":""},"♦":{"ha":709,"x_min":0,"x_max":0,"o":""},"♪":{"ha":694,"x_min":0,"x_max":0,"o":""},"♫":{"ha":1042,"x_min":0,"x_max":0,"o":""},"":{"ha":463,"x_min":0,"x_max":0,"o":""},"":{"ha":463,"x_min":0,"x_max":0,"o":""}}}
